Coordinates
version=1
nRows=24
nColumns=24
inDegrees=yes

Units are S.I. units (second, meters, Newtons, ...)
Angles are in degrees.

endheader
time	pelvis_tilt	pelvis_list	pelvis_rotation	pelvis_tx	pelvis_ty	pelvis_tz	hip_flexion_r	hip_adduction_r	hip_rotation_r	knee_angle_r	ankle_angle_r	subtalar_angle_r	mtp_angle_r	hip_flexion_l	hip_adduction_l	hip_rotation_l	knee_angle_l	ankle_angle_l	subtalar_angle_l	mtp_angle_l	lumbar_extension	lumbar_bending	lumbar_rotation
      6.34000000	      7.04752463	     -0.24193221	      4.87039678	      0.09351502	      0.92503385	     -0.16744070	      9.07786127	      3.80199198	     -6.84320529	      1.41574247	      2.07812039	     -1.37872707	      0.00000000	    -18.28191600	      3.00071929	      4.65193935	     -9.47208053	     16.37374831	     -4.24083176	      0.00000000	    -25.58086600	      1.60755980	     -3.37734788
      6.35000000	      7.18172622	     -0.53215827	      4.88269785	      0.10298567	      0.92511078	     -0.16664378	      8.83320847	      4.17456293	     -6.38376150	      0.62212594	      0.82481706	     -2.19210663	      0.00000000	    -18.63811277	      2.60838114	      4.46051224	    -10.20541118	     16.15960658	     -4.17482518	      0.00000000	    -25.59215662	      2.02017478	     -3.24323867
      6.36000000	      7.37399499	     -0.87609501	      4.93042501	      0.11252266	      0.92555736	     -0.16592174	      8.52126858	      4.60558086	     -6.19626164	     -0.16864604	     -0.31996595	     -2.84234344	      0.00000000	    -18.98030575	      2.15214087	      4.30466387	    -11.06311782	     15.78075475	     -4.16218382	      0.00000000	    -25.66367325	      2.52645415	     -3.15340529
      6.37000000	      7.54378198	     -1.21886031	      4.95150382	      0.12207589	      0.92625379	     -0.16518505	      8.22490097	      5.03374160	     -6.04102943	     -0.94217363	     -1.36357920	     -3.53269787	      0.00000000	    -19.18455033	      1.70959624	      4.03131412	    -12.11236386	     15.25584711	     -4.07838458	      0.00000000	    -25.70884761	      3.01856075	     -3.00802712
      6.38000000	      7.69335723	     -1.54397659	      4.97968208	      0.13163048	      0.92720281	     -0.16449953	      7.96749295	      5.42455227	     -6.23933769	     -1.74770725	     -2.00373016	     -3.71888043	      0.00000000	    -19.24474063	      1.29004742	      3.70460947	    -13.35833075	     14.51733305	     -4.06399036	      0.00000000	    -25.72693060	      3.50452829	     -2.88084657
      6.39000000	      7.89671568	     -1.82499592	      5.04312241	      0.14118416	      0.92843818	     -0.16383065	      7.60340627	      5.76651339	     -6.44987007	     -2.48996492	     -2.38066622	     -3.94362446	      0.00000000	    -19.20878057	      0.88535445	      3.23969191	    -14.85099351	     13.63955793	     -3.92079213	      0.00000000	    -25.81388573	      3.94802496	     -2.82056187
      6.40000000	      8.10794757	     -2.04365112	      5.11389354	      0.15070164	      0.92985002	     -0.16309195	      7.19297793	      6.04240474	     -6.72745044	     -3.19131804	     -2.42874973	     -4.05532619	      0.00000000	    -18.98950945	      0.49885986	      2.48670350	    -16.65079326	     12.74036127	     -3.43649001	      0.00000000	    -25.92010892	      4.29351766	     -2.80032406
      6.41000000	      8.26090150	     -2.17550575	      5.22576983	      0.16011973	      0.93133169	     -0.16235292	      6.81657829	      6.21323180	     -7.12373354	     -3.87357782	     -2.15895083	     -3.90112421	      0.00000000	    -18.52475012	      0.16806816	      1.71643156	    -18.71864120	     11.57908970	     -3.05818694	      0.00000000	    -25.96881898	      4.53904706	     -2.83386369
      6.42000000	      8.39664393	     -2.25707726	      5.41197347	      0.16946411	      0.93288747	     -0.16163641	      6.39615431	      6.32753738	     -7.68489818	     -4.46689981	     -1.55169160	     -3.41227302	      0.00000000	    -17.85066434	     -0.16972841	      0.95311639	    -21.05419470	     10.21757256	     -2.66263537	      0.00000000	    -25.99555249	      4.73369618	     -2.93689649
      6.43000000	      8.49305752	     -2.27337735	      5.61189354	      0.17865461	      0.93442644	     -0.16086670	      5.95672583	      6.38399808	     -8.19619885	     -4.96204544	     -0.85964238	     -2.93856753	      0.00000000	    -16.95717948	     -0.47051398	      0.20774151	    -23.61669228	      8.58165158	     -2.53068226	      0.00000000	    -26.00312448	      4.82376207	     -3.02865684
      6.44000000	      8.56019013	     -2.25014937	      5.82010987	      0.18767819	      0.93591187	     -0.16005227	      5.48189457	      6.41736992	     -8.61151309	     -5.33795408	     -0.15411741	     -2.55490052	      0.00000000	    -15.86791954	     -0.76341365	     -0.53082326	    -26.37240202	      6.73985396	     -2.60081597	      0.00000000	    -26.00998184	      4.84466713	     -3.09660839
      6.45000000	      8.62162328	     -2.23205864	      6.09108615	      0.19654055	      0.93735129	     -0.15930848	      4.95286698	      6.46681566	     -9.09013710	     -5.59226896	      0.62634600	     -1.96295144	      0.00000000	    -14.63249764	     -1.07951835	     -1.05957397	    -29.26758191	      4.71141362	     -2.86231573	      0.00000000	    -26.03766504	      4.87803319	     -3.16753998
      6.46000000	      8.63169019	     -2.21336186	      6.31661429	      0.20520280	      0.93859825	     -0.15851370	      4.44339900	      6.53601828	     -9.36620179	     -5.76084303	      1.30095445	     -1.69940071	      0.00000000	    -13.22349918	     -1.39632768	     -1.60893347	    -32.27032829	      2.70703252	     -3.34383546	      0.00000000	    -26.05568920	      4.87651465	     -3.12629201
      6.47000000	      8.65837349	     -2.21332231	      6.58210858	      0.21370271	      0.93976466	     -0.15783423	      3.87670035	      6.63159265	     -9.71275697	     -5.83474391	      2.00898081	     -1.21201969	      0.00000000	    -11.75622821	     -1.71234272	     -1.92752562	    -35.29341592	      0.75194993	     -4.06717880	      0.00000000	    -26.13183377	      4.90789929	     -3.07548163
      6.48000000	      8.63787853	     -2.24381062	      6.80617562	      0.22200657	      0.94070136	     -0.15716796	      3.35922180	      6.76606380	     -9.94699776	     -5.87093035	      2.60024607	     -1.01439728	      0.00000000	    -10.17154734	     -2.04060249	     -2.23721809	    -38.32656250	     -0.86347565	     -4.93973193	      0.00000000	    -26.20213345	      4.95785294	     -2.89473373
      6.49000000	      8.67901300	     -2.29316987	      7.04839110	      0.23016226	      0.94160011	     -0.15663726	      2.76574174	      6.92074446	    -10.32898311	     -5.86625071	      3.30884848	     -0.45389421	      0.00000000	     -8.63884982	     -2.35346762	     -2.39085641	    -41.25506215	     -2.14985498	     -6.07803104	      0.00000000	    -26.37915068	      5.05071718	     -2.71327171
      6.50000000	      8.64534544	     -2.35301316	      7.26736567	      0.23815334	      0.94227072	     -0.15614071	      2.24431378	      7.09115919	    -10.50291563	     -5.81880507	      3.81571957	     -0.33275059	      0.00000000	     -7.00730885	     -2.64307744	     -2.51348244	    -44.07503546	     -2.96082679	     -7.31054741	      0.00000000	    -26.49937377	      5.14139337	     -2.46242984
      6.51000000	      8.68038740	     -2.40673838	      7.46541327	      0.24602583	      0.94296675	     -0.15572333	      1.65374233	      7.25385976	    -10.80282128	     -5.76831576	      4.43416436	      0.10038469	      0.00000000	     -5.49126684	     -2.88658063	     -2.58503138	    -46.64908579	     -3.39977502	     -8.90093533	      0.00000000	    -26.72588006	      5.23766256	     -2.19633515
      6.52000000	      8.65599073	     -2.44766234	      7.64889610	      0.25378877	      0.94354539	     -0.15533974	      1.11308155	      7.40465224	    -10.94807944	     -5.67967334	      4.93936118	      0.28820856	      0.00000000	     -3.94430358	     -3.07345387	     -2.61865753	    -48.96427960	     -3.50054705	    -10.63759338	      0.00000000	    -26.89101887	      5.30879128	     -1.91743438
      6.53000000	      8.64747430	     -2.46217897	      7.78783874	      0.26146385	      0.94415410	     -0.15495985	      0.55311942	      7.52728577	    -11.10307497	     -5.58142217	      5.43050092	      0.54007439	      0.00000000	     -2.48142298	     -3.19601788	     -2.66117824	    -50.94153510	     -3.42827631	    -12.60460943	      0.00000000	    -27.08073021	      5.34033699	     -1.61810191
      6.54000000	      8.60424726	     -2.45231506	      7.88080004	      0.26907693	      0.94474040	     -0.15456278	      0.02227112	      7.62102485	    -11.20912653	     -5.46365367	      5.86230428	      0.72034795	      0.00000000	     -1.04966830	     -3.25316693	     -2.70708409	    -52.56933124	     -3.23758707	    -14.60685074	      0.00000000	    -27.21949577	      5.32266350	     -1.26338213
      6.55000000	      8.56087072	     -2.39329695	      7.92025362	      0.27662181	      0.94537414	     -0.15414650	     -0.51392786	      7.66053110	    -11.26174820	     -5.34525611	      6.30325385	      0.94336482	      0.00000000	      0.29700615	     -3.22003971	     -2.75941355	    -53.81814562	     -3.01996701	    -16.56497984	      0.00000000	    -27.36383551	      5.23860028	     -0.95301300
      6.56000000	      8.50253176	     -2.33587520	      7.90970433	      0.28418847	      0.94599921	     -0.15367813	     -1.06733664	      7.70845875	    -11.22095655	     -5.16205070	      6.74724684	      1.11631868	      0.00000000	      1.58420031	     -3.17393295	     -2.84047172	    -54.72155510	     -2.69185022	    -18.13019963	      0.00000000	    -27.44666528	      5.13205129	     -0.59809725
      6.57000000	      8.41405301	     -2.18289992	      7.85706490	      0.29167322	      0.94665326	     -0.15322216	     -1.57682054	      7.63676135	    -11.25776827	     -5.01620035	      7.10489938	      1.33653806	      0.00000000	      2.80301431	     -2.95939674	     -2.86527784	    -55.24096868	     -2.39096702	    -19.48780951	      0.00000000	    -27.51017424	      4.89390098	     -0.28691939
